P3
2 3
255
31 253 13 31 253 13 
252 25 63 252 25 63 
252 25 63 252 25 63 
